<?xml version="1.0" encoding="UTF-8" standalone="no"?>
<svg xmlns="http://www.w3.org/2000/svg" xmlns:xlink="http://www.w3.org/1999/xlink" width="500" height="200" viewBox="0 0 500 200">
  <g fill="none" fill-rule="evenodd">
    <!-- Dark blue background shape -->
    <path fill="#1E2A4A" d="M40 30 L140 30 L90 120 L40 30 M90 120 L140 180 L40 180 L90 120"/>
    
    <!-- K letter -->
    <path fill="#1BA8A8" d="M40 30 L70 30 L70 90 L120 30 L160 30 L95 100 L160 180 L120 180 L70 120 L70 180 L40 180 Z"/>
    
    <!-- Orange accent -->
    <path fill="#FF7043" d="M75 95 L95 75 L115 95 L95 115 Z"/>
    
    <!-- AIROS text -->
    <path fill="#1BA8A8" d="M180 30 L220 30 L250 100 L280 30 L320 30 L270 180 L230 180 L180 30 M330 30 L360 30 L360 180 L330 180 Z M380 30 L450 30 C470 30 480 50 480 70 C480 90 470 110 450 110 L410 110 L410 180 L380 180 L380 30 Z M410 50 L410 90 L440 90 C450 90 450 50 440 50 L410 50 Z M460 120 C480 120 490 140 490 160 C490 180 480 180 460 180 C440 180 430 160 430 140 C430 120 440 120 460 120 Z"/>
  </g>
</svg>
